PathFileType	4	(X/Y/Z)	C:\Users\Basilio\Documents\Thesis Gigler\squatting_fais\c3dfiles\041\SJ_pre2\markers_experimental.trc
DataRate	CameraRate	NumFrames	NumMarkers	Units	OrigDataRate	OrigDataStartFrame	OrigNumFrames
200.000000	200.000000	4	62	mm	200.000000	868	1390
Frame#	Time	FHD			LBHD			RBHD			C7			T10			CLAV			LSHO			LUUPA			LMUPA			LDUPA			LLEP			LMEP			LRAD			LUL			LRFIN			RSHO			RUPA1			RMUPA			RDUPA			RLEP			RMEP			RRAD			RUL			RUFIN			LASI			RASI			USACR			LSACR			RSACR			LTHI1			LTHI2			LTHI3			LTHI4			LLFC			LMFC			LTIB1			LTIB2			LTIB3			LTIB4			LLMAL			LMMAL			LHEE			LMT1			LMT2			LMT5			RTHI			RTHI2			RTHI3			RTHI4			RLFC			RMFC			RTIB1			RTIB2			RTIB3			RTIB4			RLMAL			RMMAL			RHEE			RMT1			RMT2			RMT5			*61			
		X1	Y1	Z1	X2	Y2	Z2	X3	Y3	Z3	X4	Y4	Z4	X5	Y5	Z5	X6	Y6	Z6	X7	Y7	Z7	X8	Y8	Z8	X9	Y9	Z9	X10	Y10	Z10	X11	Y11	Z11	X12	Y12	Z12	X13	Y13	Z13	X14	Y14	Z14	X15	Y15	Z15	X16	Y16	Z16	X17	Y17	Z17	X18	Y18	Z18	X19	Y19	Z19	X20	Y20	Z20	X21	Y21	Z21	X22	Y22	Z22	X23	Y23	Z23	X24	Y24	Z24	X25	Y25	Z25	X26	Y26	Z26	X27	Y27	Z27	X28	Y28	Z28	X29	Y29	Z29	X30	Y30	Z30	X31	Y31	Z31	X32	Y32	Z32	X33	Y33	Z33	X34	Y34	Z34	X35	Y35	Z35	X36	Y36	Z36	X37	Y37	Z37	X38	Y38	Z38	X39	Y39	Z39	X40	Y40	Z40	X41	Y41	Z41	X42	Y42	Z42	X43	Y43	Z43	X44	Y44	Z44	X45	Y45	Z45	X46	Y46	Z46	X47	Y47	Z47	X48	Y48	Z48	X49	Y49	Z49	X50	Y50	Z50	X51	Y51	Z51	X52	Y52	Z52	X53	Y53	Z53	X54	Y54	Z54	X55	Y55	Z55	X56	Y56	Z56	X57	Y57	Z57	X58	Y58	Z58	X59	Y59	Z59	X60	Y60	Z60	X61	Y61	Z61	X62	Y62	Z62	

869	4.34	50.30930709838869	1235.350708007813	-890.9807739257815	-126.0447387695313	1179.66845703125	-976.086120605469	-111.4902038574219	1177.2197265625	-822.2988281250002	-182.4530944824219	1096.861206054688	-908.5474853515627	-411.2003173828126	900.0879516601565	-913.646667480469	-81.64120483398439	952.7817993164065	-914.857849121094	-108.6083679199219	1040.061279296875	-1081.545654296875	-228.8180694580079	979.2509765625002	-1229.237548828125	-249.3443756103516	935.379821777344	-1228.652099609375	-280.7220153808594	961.3140258789065	-1272.700805664063	-323.6940612792969	940.7544555664065	-1299.6005859375	-393.0620422363282	967.929870605469	-1244.302978515625	-445.3091125488282	779.0524902343752	-1120.871948242188	-455.3268432617189	726.7877197265626	-1175.394165039063	-407.3493957519532	741.3883056640626	-1086.286010742188	-86.35611724853517	1019.122192382813	-743.9792480468751	-188.0820465087891	933.6610107421877	-565.4255981445314	-184.8416900634766	885.6453857421877	-581.8312377929689	-219.0475158691407	876.209899902344	-535.6936035156251	-253.0381317138672	839.7285156250002	-521.1644897460939	-325.4690551757813	896.8231201171877	-541.4967651367189	-443.6054687500001	769.2356567382815	-689.2864990234376	-410.7857055664064	749.6812744140626	-741.4764404296876	-436.8179016113282	699.9529418945314	-653.0756835937501	-387.507293701172	671.2395629882814	-1016.830383300781	-393.0516357421876	683.2602539062501	-804.9092407226565	-512.7994995117189	826.6257324218752	-918.902038574219	-543.3095703125001	815.1837158203127	-946.125671386719	-543.7324218750001	815.429626464844	-890.0280761718752	-462.8823242187501	583.7087402343751	-1127.961791992188	-378.1086730957032	575.6639404296876	-1139.91455078125	-352.3105773925782	613.4340209960939	-1126.786010742188	-347.6020812988282	523.9552612304689	-1146.90771484375	-196.7161865234376	448.3902282714845	-1162.011474609375	-174.9549102783203	416.5998840332032	-1057.118896484375	-228.5157165527344	262.8624877929688	-1132.370483398438	-299.0856628417969	255.8523712158204	-1193.500122070313	-265.0441589355469	235.2818450927735	-1170.021850585938	-298.1791687011719	161.0846710205078	-1145.82861328125	-396.9043579101564	103.088737487793	-1189.697509765625	-354.1954956054688	99.61515808105472	-1109.72509765625	-461.6286010742189	54.6412925720215	-1156.028930664063	-244.4075317382813	57.33574676513673	-1144.262939453125	-239.8734741210938	58.21307373046876	-1188.948364257813	-283.8669738769532	36.49131774902344	-1243.349243164063	-407.3919372558595	559.0935668945314	-702.8021240234376	-340.9060363769532	562.9935913085939	-696.6236572265626	-322.1707458496094	588.8660278320314	-704.9335937500001	-289.7706604003907	493.3568725585939	-695.6153564453126	-204.5299835205079	434.7674560546876	-688.9941406250001	-180.9093170166016	412.0474548339845	-799.0283203125002	-228.204330444336	278.9515075683594	-690.1099853515626	-338.3694763183594	247.7563018798829	-675.8514404296876	-295.9876403808594	226.2146911621094	-677.4584960937501	-298.2443847656251	173.1104888916016	-702.5453491210939	-400.5547180175782	94.67579650878908	-684.8565673828126	-367.1343383789063	98.37336730957034	-764.5578613281251	-464.2638244628907	49.6608238220215	-731.5161743164064	-245.4141693115235	51.59954833984376	-721.6148071289064	-247.4285430908204	56.45192337036134	-670.2036132812501	-295.4041748046876	37.84822463989259	-623.5919799804689	-4216.794921875001	853.1029052734377	-3944.579589843751	
870	4.345	50.34133911132814	1235.9248046875	-890.7724609375002	-125.994499206543	1180.363159179688	-976.0630493164065	-111.5786666870117	1177.702758789063	-822.2255859375002	-182.2416076660157	1097.410766601563	-908.5086669921877	-410.8126220703126	900.5122070312502	-913.705505371094	-81.29875946044923	953.1409301757815	-915.1247558593752	-108.2828521728516	1040.560791015625	-1081.57666015625	-228.5287475585938	979.6556396484377	-1229.286865234375	-248.9709167480469	935.6638793945315	-1228.703369140625	-280.2744750976563	961.768249511719	-1272.861328125	-323.3300781250001	941.0684814453127	-1299.619262695313	-392.7236938476564	968.0258789062502	-1244.282958984375	-444.5593261718751	779.1141357421877	-1120.976196289063	-454.6474914550782	726.7719726562501	-1175.437255859375	-406.577117919922	741.5173950195314	-1086.433959960938	-86.19371795654298	1019.542175292969	-743.9515991210939	-187.6415405273438	933.9553833007815	-565.1279296875001	-184.8877105712891	885.8335571289065	-581.8128662109376	-218.7844390869141	876.477966308594	-535.6558227539064	-252.8106689453126	840.182067871094	-521.1305541992189	-325.2665405273438	897.0654907226565	-541.5961303710939	-443.2593994140626	769.5467529296877	-689.4891967773439	-410.5074768066407	749.9941406250001	-741.6058349609376	-436.3853149414064	700.3542480468751	-653.2941284179689	-386.6795654296876	671.7845458984376	-1016.857238769531	-392.5209045410157	683.4164428710939	-804.916687011719	-512.3506469726564	826.8374023437502	-918.9448242187502	-542.7660522460939	815.4454345703127	-946.305358886719	-543.5225219726564	815.755065917969	-890.1065063476565	-462.1046142578126	583.4228515625001	-1127.9130859375	-377.4109802246094	575.7528686523439	-1139.855590820313	-351.7742309570313	613.6335449218751	-1126.878540039063	-347.0048522949219	523.9660034179689	-1146.890747070313	-196.2248992919922	448.1702270507814	-1161.946411132813	-174.7601928710938	415.9221801757814	-1056.096557617188	-228.3950653076172	262.7481384277344	-1132.259887695313	-298.8101501464844	255.7354278564454	-1193.472290039063	-264.4394531250001	234.8260345458985	-1169.804809570313	-298.2357482910157	161.2911834716797	-1145.709716796875	-396.6231994628907	102.8573150634766	-1189.783081054688	-354.2069702148438	99.61436462402347	-1109.681884765625	-461.6546936035157	54.66448211669923	-1156.05712890625	-244.4088745117188	57.31629562377931	-1144.2431640625	-239.8436279296876	58.17277908325197	-1188.939819335938	-283.8405151367188	36.47178649902344	-1243.3525390625	-406.925018310547	559.2029418945314	-702.8551025390626	-340.5452575683594	562.8554077148439	-696.6322021484376	-321.7450256347657	588.8653564453126	-704.9080810546876	-289.5075988769532	493.4045410156251	-695.4655761718751	-204.3213653564454	434.5314025878907	-688.7578735351564	-180.63720703125	411.9084777832032	-798.8306274414065	-228.0804595947266	278.8344726562501	-689.8671875000001	-338.2601013183594	247.6972198486329	-675.6875610351564	-295.8428344726563	226.1392669677735	-677.3601684570314	-298.2263793945313	173.0580749511719	-702.5426025390626	-400.5326538085939	94.67444610595705	-684.8895874023439	-367.1045837402344	98.39831542968753	-764.4786376953126	-464.2695617675782	49.66626358032228	-731.5059814453126	-245.4204864501954	51.62585449218751	-721.5516967773439	-247.3871002197266	56.45286178588869	-670.1883544921876	-295.4390258789063	37.87028121948243	-623.5707397460939	-4216.792480468751	853.1148071289065	-3944.604248046876	
871	4.350000000000001	49.79505920410158	1236.72314453125	-890.3943481445315	-126.0261917114258	1181.1494140625	-975.9924316406252	-111.764518737793	1178.426879882813	-822.1873168945315	-182.0326690673828	1098.10791015625	-908.5020751953127	-410.4965820312501	900.9632568359377	-913.721618652344	-80.94406127929689	954.0568847656252	-915.1218261718752	-108.2094879150391	1041.041381835938	-1081.537353515625	-228.2276000976563	979.9621582031252	-1229.256591796875	-248.5873718261719	936.115661621094	-1228.775024414063	-280.0033264160157	962.116149902344	-1272.80322265625	-322.9415283203126	941.3712158203127	-1299.612426757813	-392.4020080566407	968.1655883789065	-1244.346069335938	-442.6060791015626	778.9754028320315	-1121.379638671875	-453.9144897460939	726.9099731445314	-1175.489501953125	-406.0869445800782	741.7185058593751	-1086.453735351563	-85.99662017822267	1019.992248535156	-744.0523071289064	-187.8686828613282	934.4042968750002	-565.4553833007814	-184.592758178711	886.220397949219	-581.7979125976564	-218.595687866211	876.9437255859377	-535.6372680664064	-252.5162506103516	840.506042480469	-521.1575317382814	-325.0544128417969	897.250427246094	-541.6415405273439	-442.8839111328126	769.871276855469	-689.6389770507814	-410.1180725097657	750.3599243164064	-741.6964721679689	-436.0869140625001	700.7291259765626	-653.4537353515626	-386.8601379394532	671.5173950195314	-1017.017822265625	-391.9426269531251	683.6940917968751	-805.0092773437502	-511.7931213378907	826.9656372070315	-919.1030883789065	-542.6832275390626	816.0164184570315	-946.397399902344	-543.0061645507814	816.1355590820315	-890.3572998046877	-461.3297424316407	583.5789794921876	-1127.938598632813	-376.6142578125001	575.8029785156251	-1139.755981445313	-350.9963989257813	613.6865844726564	-1126.906860351563	-346.3504028320313	523.8215942382814	-1146.885131835938	-195.3160705566407	447.7737121582032	-1161.7958984375	-174.5200347900391	415.6733398437501	-1056.868408203125	-228.1583557128907	262.5981445312501	-1132.2119140625	-298.4581604003907	255.5937194824219	-1193.5009765625	-263.7739257812501	234.2502899169922	-1169.72412109375	-298.0219726562501	160.9397888183594	-1145.892700195313	-396.8999023437501	103.0833816528321	-1189.708129882813	-354.1694641113282	99.59303283691409	-1109.682739257813	-461.6649780273439	54.71935272216798	-1156.068725585938	-244.5107879638672	57.31008529663087	-1144.281372070313	-239.8227996826172	58.12796783447267	-1189.000854492188	-283.9089050292969	36.50913619995118	-1243.364990234375	-406.5669250488282	559.3198852539064	-702.8561401367189	-340.1358947753907	563.0951538085939	-696.4662475585939	-321.5267028808594	588.8481445312501	-704.7280883789064	-289.1434020996094	493.4491577148439	-695.2918090820314	-204.1057739257813	434.4475097656251	-688.4631347656251	-180.4555969238282	411.684295654297	-798.4124145507815	-227.8746337890626	278.6022949218751	-689.6715698242189	-338.1969604492188	247.6459960937501	-675.5375366210939	-295.8334655761719	225.8867492675782	-677.1412963867189	-298.1836242675782	172.8957977294922	-702.4035644531251	-400.5103759765626	94.63616943359376	-684.8386230468751	-367.0694580078126	98.39170074462893	-764.4386596679689	-464.2605590820314	49.63533401489259	-731.4974365234376	-245.4736938476563	51.60681915283205	-721.5303344726564	-247.4320373535157	56.3982620239258	-670.1365966796876	-295.4219970703126	37.83213424682618	-623.5218505859376	-4217.075683593751	853.1546020507815	-3944.735107421876	
872	4.355	49.98960494995119	1237.659790039063	-890.149597167969	-126.1166687011719	1181.990600585938	-975.957458496094	-112.1054306030274	1179.153442382813	-822.1070556640627	-182.0270233154297	1098.902221679688	-908.4317016601565	-410.0611267089845	901.2692871093752	-913.7369384765627	-80.72849273681642	954.7657470703127	-915.2119140625002	-108.1720352172852	1041.678100585938	-1081.464111328125	-227.979232788086	980.6188964843752	-1229.287475585938	-248.1624755859376	936.7181396484377	-1228.826416015625	-279.7237548828126	962.565368652344	-1272.906860351563	-322.6011047363282	941.6667480468752	-1299.679321289063	-392.1246643066407	968.4732666015627	-1244.439086914063	-443.0818786621095	779.3002929687502	-1121.071899414063	-453.1131591796876	727.0255737304689	-1175.5458984375	-405.443572998047	741.8493041992189	-1086.50537109375	-85.92615509033205	1020.621459960938	-743.9714355468751	-187.8948822021485	935.0186767578127	-565.4453125000001	-184.3358306884766	886.956970214844	-581.7067871093751	-218.3994903564454	877.4541625976565	-535.6754150390626	-252.4224853515626	841.0357666015627	-521.1615600585939	-324.9615478515626	897.542175292969	-541.7313842773439	-442.437713623047	770.208923339844	-689.7844238281251	-409.9011230468751	750.7155761718751	-741.7164916992189	-435.6853332519532	700.9106445312501	-653.5189208984376	-386.1797485351564	672.1009521484376	-1017.084899902344	-391.401336669922	683.9278564453126	-805.0118408203127	-511.3356018066407	827.4074707031252	-919.2042236328127	-542.2344970703126	816.419616699219	-946.5547485351565	-542.8205566406251	816.6351318359377	-890.5537109375002	-460.5069274902345	583.8135986328126	-1127.951782226563	-375.7315368652344	575.7557373046876	-1139.659057617188	-349.8004455566407	613.4329223632814	-1126.771118164063	-345.7203674316407	523.7248535156251	-1146.985595703125	-195.1421966552735	447.688201904297	-1161.895874023438	-174.1998901367188	415.1595458984376	-1056.860473632813	-227.8729095458985	262.4557800292969	-1132.23876953125	-298.2435607910157	255.4649963378907	-1193.375	-263.6436157226563	234.0115509033204	-1169.673461914063	-297.9115905761719	160.8105621337891	-1145.913330078125	-396.5621032714845	102.8598709106446	-1189.76611328125	-354.1490478515626	99.59987640380862	-1109.709228515625	-461.725067138672	54.81669235229494	-1156.134033203125	-244.5227813720704	57.3644142150879	-1144.334838867188	-239.7950134277344	58.07823181152345	-1188.98046875	-284.3043212890626	36.78176879882813	-1243.453979492188	-406.3290405273439	559.4621582031251	-702.7797241210939	-339.7684936523438	563.1709594726564	-696.4386596679689	-321.0533142089844	588.9655151367189	-704.5571289062501	-288.8712768554688	493.4033508300782	-695.1036376953126	-204.0252990722657	434.2416076660157	-688.2008056640626	-180.3263549804688	411.5252380371095	-798.0269775390627	-227.7522277832032	278.3704833984376	-689.4812622070314	-338.1225585937501	247.6166381835938	-675.4197387695314	-295.6831054687501	225.7964324951172	-676.9039306640626	-298.1847229003907	172.7255401611328	-702.2292480468751	-400.5407104492189	94.59752655029298	-684.8232421875001	-367.1102905273438	98.41281890869143	-764.4468383789064	-464.2565307617189	49.63985824584962	-731.4963989257814	-245.4659881591797	51.60034561157228	-721.5296630859376	-247.6062927246094	56.44964981079103	-670.1350097656251	-295.4205627441407	37.8039779663086	-623.5297241210939	-4217.018066406251	853.123962402344	-3944.700439453126	
